# xmcd
#
# Track frame offsets: 
#        150
#        13291
#        25890
#        38221
#        50419
#        63342
#        75819
#        88804
#        103686
#        116284
#        127971
#        140056
#        153956
#        166394
#        177995
#        190460
#        203800
#        216766
#        232191
#        243989
#
# Disc length: 3459 seconds
#
# Revision: 1
# Processed by: cddbd v1.5.2PL0 Copyright (c) Steve Scherf et al.
# Submitted via: ExactAudioCopyFreeDBPlugin 1.0
#
DISCID=120d8114
DTITLE=Memphis Minnie, Big Maybelle - ABC Of The Blues - Vol. 29 Memph
DTITLE=is Minnie, Big Maybelle
DYEAR=2010
DGENRE=Blues
TTITLE0=Memphis Minnie - Frisco Town
TTITLE1=Memphis Minnie - Moonshine
TTITLE2=Memphis Minnie - Nothing In Rambling
TTITLE3=Memphis Minnie - I'm Talking About You
TTITLE4=Memphis Minnie - Joe Louis Strut
TTITLE5=Memphis Minnie - Me And My Chauffeur Blues
TTITLE6=Memphis Minnie - My Baby Don't Want Me No More
TTITLE7=Memphis Minnie - Bumble Bee
TTITLE8=Memphis Minnie - Boy Friend Blues
TTITLE9=Memphis Minnie - In My Girlish Days
TTITLE10=Big Maybelle - Gabbin' Blues (Don't Run My Business)
TTITLE11=Big Maybelle - Rain Down Rain
TTITLE12=Big Maybelle - Way Back Home
TTITLE13=Big Maybelle - Please Stay Away From My Sam
TTITLE14=Big Maybelle - Jinny Mule
TTITLE15=Big Maybelle - I've Got A Feelin'
TTITLE16=Big Maybelle - One Monkey Don't Stop No Show
TTITLE17=Big Maybelle - Hair Dressin' Women
TTITLE18=Big Maybelle - Don't Leave Poor Me
TTITLE19=Big Maybelle - No More Trouble Out Of Me
EXTD=
EXTT0=
EXTT1=
EXTT2=
EXTT3=
EXTT4=
EXTT5=
EXTT6=
EXTT7=
EXTT8=
EXTT9=
EXTT10=
EXTT11=
EXTT12=
EXTT13=
EXTT14=
EXTT15=
EXTT16=
EXTT17=
EXTT18=
EXTT19=
PLAYORDER=
